<?xml version="1.0" standalone="no"?>
<!DOCTYPE svg PUBLIC "-//W3C//DTD SVG 20010904//EN"
 "http://www.w3.org/TR/2001/REC-SVG-20010904/DTD/svg10.dtd">
<svg version="1.0" xmlns="http://www.w3.org/2000/svg"
 width="512.000000pt" height="512.000000pt" viewBox="0 0 512.000000 512.000000"
 preserveAspectRatio="xMidYMid meet">
<metadata>
Created by potrace 1.14, written by Peter Selinger 2001-2017
</metadata>
<g transform="translate(0.000000,512.000000) scale(0.100000,-0.100000)"
fill="#000000" stroke="none">
<path d="M1295 5043 c3 -43 8 -87 10 -98 2 -11 7 -51 10 -90 3 -38 8 -77 10
-85 2 -8 6 -51 9 -95 4 -44 8 -91 10 -105 3 -14 7 -56 11 -95 3 -38 8 -83 10
-100 3 -16 7 -55 9 -85 3 -30 10 -98 16 -150 12 -117 18 -169 25 -240 8 -77
15 -139 20 -180 2 -19 7 -60 11 -90 3 -30 8 -58 10 -61 1 -3 67 -6 144 -6
l141 -1 -6 82 c-4 44 -8 83 -10 86 -2 3 -6 43 -10 90 -5 47 -9 92 -10 100 -1
8 -5 51 -9 95 -4 44 -9 91 -11 105 -2 14 -7 52 -10 85 -3 33 -8 76 -10 95 -3
19 -7 67 -10 105 -4 39 -8 81 -10 95 -7 53 -18 153 -30 280 -3 36 -8 79 -10
95 -2 17 -7 59 -10 95 -4 36 -9 76 -10 90 -2 14 -4 33 -4 43 -1 15 -15 17
-147 17 l-146 0 7 -77z"/>
<path d="M3165 4300 c-129 -25 -198 -53 -310 -126 -188 -123 -314 -318 -349
-540 l-12 -79 -739 -5 c-485 -3 -739 -8 -738 -15 0 -5 4 -59 8 -120 3 -60 8
-117 10 -125 2 -8 7 -64 11 -125 3 -60 8 -117 9 -126 2 -9 6 -63 10 -120 3
-57 8 -120 10 -139 2 -19 7 -73 10 -120 3 -47 8 -105 10 -130 2 -25 7 -79 10
-120 3 -41 8 -101 10 -132 3 -32 7 -84 10 -115 2 -32 7 -94 10 -138 3 -44 7
-105 10 -135 3 -30 7 -86 10 -125 3 -38 8 -92 10 -120 2 -27 7 -86 10 -130 8
-114 15 -202 20 -260 8 -89 22 -275 30 -380 6 -81 14 -190 20 -255 2 -25 7
-83 10 -130 3 -47 8 -101 10 -120 2 -19 7 -78 11 -130 4 -52 8 -108 9 -125 2
-16 3 -49 4 -72 l1 -43 935 0 c741 0 935 3 936 13 1 21 18 248 24 312 2 22 6
81 10 130 3 50 8 101 10 115 2 14 6 72 10 130 4 58 8 121 10 140 2 19 6 73 9
120 4 47 8 108 11 135 2 28 7 88 10 135 3 47 8 96 10 110 2 14 7 70 10 125 4
55 8 116 10 135 2 19 6 76 9 125 4 50 9 110 11 135 3 25 7 81 10 125 3 44 7
96 9 115 2 19 7 78 11 130 3 52 8 115 10 140 7 80 14 173 20 250 3 41 9 78 13
82 4 4 23 9 42 11 98 12 246 71 339 134 148 102 280 295 319 468 20 86 23 108
23 185 -1 369 -231 675 -588 782 -74 21 -275 32 -348 18z"/>
</g>
</svg>
