<svg xmlns="http://www.w3.org/2000/svg" xmlns:xlink="http://www.w3.org/1999/xlink" viewBox="0 0 321.63 336.96"><defs><style>.cls-1{fill-rule:evenodd;fill:url(#GradientFill_1);}</style><linearGradient id="GradientFill_1" x1="121.18" y1="-31.93" x2="177.9" y2="371.59" gradientUnits="userSpaceOnUse"><stop offset="0" stop-color="#0086c5"/><stop offset="0.01" stop-color="#0484c4"/><stop offset="0.15" stop-color="#396fb7"/><stop offset="0.3" stop-color="#675dac"/><stop offset="0.44" stop-color="#8d4ea3"/><stop offset="0.59" stop-color="#aa429c"/><stop offset="0.73" stop-color="#be3a97"/><stop offset="0.87" stop-color="#cb3594"/><stop offset="1" stop-color="#cf3393"/></linearGradient></defs><g id="レイヤー_2" data-name="レイヤー 2"><g id="Layer_1" data-name="Layer 1"><path class="cls-1" d="M206.35,199.13h72.77a8.06,8.06,0,0,0,8.06-8v-45.2a8.06,8.06,0,0,0-8.06-8.06H19.58a8.06,8.06,0,0,0-8.06,8v45.2a8.06,8.06,0,0,0,8.06,8.06H206.35ZM88,256.58a11.47,11.47,0,1,0-11.47,11.47A11.47,11.47,0,0,0,88,256.58Zm0-88.1A11.47,11.47,0,1,1,76.57,157,11.48,11.48,0,0,1,88,168.48ZM42.12,206.8v11.46h214.4V206.8H42.12Zm0,88v11.53h214.4V294.84H42.12ZM57.39,168.48A11.47,11.47,0,1,1,45.92,157a11.48,11.48,0,0,1,11.47,11.47Zm-34.46-157A11.47,11.47,0,1,0,11.46,22.93,11.47,11.47,0,0,0,22.93,11.47ZM42.12,118.7v11.52h214.4V118.7H42.12ZM88,80.44A11.47,11.47,0,1,0,76.57,91.9,11.48,11.48,0,0,0,88,80.44ZM206.35,111H19.52a8.05,8.05,0,0,1-8.06-8V57.78a8.06,8.06,0,0,1,8.06-8.05h259.6a8.05,8.05,0,0,1,8.06,8.05V103a8.06,8.06,0,0,1-8.06,8H206.35Zm-149-30.59A11.47,11.47,0,1,0,45.92,91.9,11.48,11.48,0,0,0,57.39,80.44Zm0,176.14a11.47,11.47,0,1,0-11.47,11.47,11.47,11.47,0,0,0,11.47-11.47Zm221.73-30.65a8.13,8.13,0,0,1,8.11,8v45.2a8.05,8.05,0,0,1-8.05,8.05H19.58a8.05,8.05,0,0,1-8.06-8.05V234a8.05,8.05,0,0,1,8.06-8H279.12Zm42.51,95.71A15.33,15.33,0,1,0,306.31,337a15.32,15.32,0,0,0,15.32-15.32ZM76.57,275.71a19.2,19.2,0,0,1-15.32-7.66,19.13,19.13,0,1,1,0-22.94,19.14,19.14,0,1,1,15.32,30.6Zm88.05-12.25V249.7a3.85,3.85,0,0,0-3.81-3.81,3.81,3.81,0,0,0-3.8,3.81v13.76a3.81,3.81,0,0,0,7.61,0Zm15.33,0V249.7a3.81,3.81,0,1,0-7.61,0v13.76a3.81,3.81,0,0,0,7.61,0Zm15.32,0V249.7a3.8,3.8,0,1,0-7.6,0v13.76a3.8,3.8,0,1,0,7.6,0Zm15.33,0V249.7a3.81,3.81,0,1,0-7.61,0v13.76a3.81,3.81,0,0,0,7.61,0Zm15.33,0V249.7a3.85,3.85,0,0,0-3.81-3.81,3.81,3.81,0,0,0-3.8,3.81v13.76a3.81,3.81,0,0,0,7.61,0Zm15.27,0V249.7a3.81,3.81,0,1,0-7.61,0v13.76a3.81,3.81,0,0,0,7.61,0Zm15.32,0V249.7a3.85,3.85,0,0,0-3.8-3.81,3.81,3.81,0,0,0-3.8,3.81v13.76a3.8,3.8,0,1,0,7.6,0Zm15.33,0V249.7a3.81,3.81,0,1,0-7.61,0v13.76a3.85,3.85,0,0,0,3.81,3.8,3.8,3.8,0,0,0,3.8-3.8Zm-7.66-190V87.26a3.85,3.85,0,0,0,3.8,3.81,3.81,3.81,0,0,0,3.8-3.81V73.5a3.8,3.8,0,1,0-7.6,0Zm-15.33,0V87.26a3.85,3.85,0,0,0,3.81,3.81,3.81,3.81,0,0,0,3.8-3.81V73.5a3.81,3.81,0,0,0-7.61,0Zm-15.33,0V87.26a3.81,3.81,0,1,0,7.61,0V73.5a3.81,3.81,0,0,0-7.61,0Zm-15.27,0V87.26a3.85,3.85,0,0,0,3.81,3.81,3.81,3.81,0,0,0,3.8-3.81V73.5a3.81,3.81,0,0,0-7.61,0Zm-15.32,0V87.26a3.8,3.8,0,1,0,7.6,0V73.5a3.8,3.8,0,1,0-7.6,0Zm-15.33,0V87.26a3.8,3.8,0,1,0,7.6,0V73.5a3.8,3.8,0,0,0-7.6,0Zm-15.32,0V87.26a3.8,3.8,0,1,0,7.6,0V73.5a3.8,3.8,0,1,0-7.6,0ZM157,73.5V87.26a3.85,3.85,0,0,0,3.8,3.81,3.81,3.81,0,0,0,3.8-3.81V73.5a3.8,3.8,0,0,0-7.6,0ZM26.79,80.44A19.14,19.14,0,0,1,61.25,69a19.13,19.13,0,1,1,0,22.94A19.14,19.14,0,0,1,26.79,80.44Zm237.4,81.16a3.81,3.81,0,0,1,3.8-3.81,3.85,3.85,0,0,1,3.8,3.81v13.76a3.81,3.81,0,0,1-3.8,3.81,3.85,3.85,0,0,1-3.8-3.81V161.6Zm-15.33,0a3.81,3.81,0,1,1,7.61,0v13.76a3.81,3.81,0,0,1-3.8,3.81,3.85,3.85,0,0,1-3.81-3.81V161.6Zm-15.33,0a3.81,3.81,0,1,1,7.61,0v13.76a3.81,3.81,0,1,1-7.61,0V161.6Zm-15.27,0a3.81,3.81,0,1,1,7.61,0v13.76a3.81,3.81,0,0,1-3.8,3.81,3.85,3.85,0,0,1-3.81-3.81V161.6Zm-15.32,0a3.8,3.8,0,1,1,7.6,0v13.76a3.8,3.8,0,1,1-7.6,0V161.6Zm-15.33,0a3.8,3.8,0,1,1,7.6,0v13.76a3.8,3.8,0,1,1-7.6,0V161.6Zm-15.32,0a3.8,3.8,0,1,1,7.6,0v13.76a3.8,3.8,0,1,1-7.6,0V161.6Zm-15.33,0a3.81,3.81,0,0,1,3.8-3.81,3.85,3.85,0,0,1,3.8,3.81v13.76a3.81,3.81,0,0,1-3.8,3.81,3.85,3.85,0,0,1-3.8-3.81V161.6ZM26.79,168.48A19.14,19.14,0,0,1,61.25,157a19.13,19.13,0,1,1,0,22.94,19.14,19.14,0,0,1-34.46-11.47Z"/></g></g></svg>